HIERARCHY
ROOT Hips
{
  OFFSET 5.70366 102.999 -1.77653
  CHANNELS 6 Xposition Yposition Zposition Zrotation Xrotation Yrotation
  JOINT RightUpLeg
  {
    OFFSET -8.9458 -8.66707 0.101652
    CHANNELS 3 Zrotation Xrotation Yrotation
    JOINT RightLeg
    {
      OFFSET 0 -44.4227 1.3727
      CHANNELS 3 Zrotation Xrotation Yrotation
      JOINT RightFoot
      {
        OFFSET 0.253549 -42.0924 -1.46059
        CHANNELS 3 Zrotation Xrotation Yrotation
        JOINT RightToes
        {
          OFFSET 0.04 -4.41509 8.4991
          CHANNELS 3 Zrotation Xrotation Yrotation
          End Site
          {
            OFFSET -0.08 -0.137448 9.77979
          }
        }
      }
    }
  }
  JOINT Spine
  {
    OFFSET 0 11.8905 0
    CHANNELS 3 Zrotation Xrotation Yrotation
    JOINT Spine1
    {
      OFFSET 0 25.6574 0.127663
      CHANNELS 3 Zrotation Xrotation Yrotation
      JOINT HEad
      {
        OFFSET 0 8.73416 0.011341
        CHANNELS 3 Zrotation Xrotation Yrotation
        End Site
        {
          OFFSET -0.29 12.7742 2.51395
        }
      }
      JOINT LeftShoulder1
      {
        OFFSET 8.99 -0.362252 -0.22
        CHANNELS 3 Zrotation Xrotation Yrotation
        JOINT LeftArm
        {
          OFFSET 10.2827 -0.00337999 0.322123
          CHANNELS 3 Zrotation Xrotation Yrotation
          JOINT LeftForeArm
          {
            OFFSET 26.2597 0.099144 -1.42434
            CHANNELS 3 Zrotation Xrotation Yrotation
            JOINT LeftHand
            {
              OFFSET 22.0902 0.085362 1.02216
              CHANNELS 3 Zrotation Xrotation Yrotation
              End Site
              {
                OFFSET 13.419 -0.6 1.50291
              }
            }
          }
        }
      }
      JOINT RightShoulder
      {
        OFFSET -8.99 -0.362252 -0.22
        CHANNELS 3 Zrotation Xrotation Yrotation
        JOINT RightArm
        {
          OFFSET -10.2827 -0.00338 0.322123
          CHANNELS 3 Zrotation Xrotation Yrotation
          JOINT RightForeArm
          {
            OFFSET -26.364 0.099144 -1.42434
            CHANNELS 3 Zrotation Xrotation Yrotation
            JOINT RightHand
            {
              OFFSET -22.0324 0.085362 1.02216
              CHANNELS 3 Zrotation Xrotation Yrotation
              End Site
              {
                OFFSET -13.3284 -0.6 1.50291
              }
            }
          }
        }
      }
    }
  }
  JOINT LeftUpLeg
  {
    OFFSET 8.9458 -8.66707 0.101652
    CHANNELS 3 Zrotation Xrotation Yrotation
    JOINT LeftLeg
    {
      OFFSET 0 -44.4227 1.3727
      CHANNELS 3 Zrotation Xrotation Yrotation
      JOINT LeftFoot
      {
        OFFSET -0.253549 -42.0924 -1.46059
        CHANNELS 3 Zrotation Xrotation Yrotation
        JOINT LeftToes
        {
          OFFSET -0.04 -4.41509 8.4991
          CHANNELS 3 Zrotation Xrotation Yrotation
          End Site
          {
            OFFSET 0.08 -0.047448 9.77979
          }
        }
      }
    }
  }
}
MOTION
Frames:	10
Frame Time:	0.0416667
-207.808 104.323 17.3675 -0.941132 -2.412 86.7205 2.4421 -8.70742 2.82615 -1.20374 18.8094 -0.321669 0.642799 -9.80539 -0.174259 0.0462048 0.00053089 0.662642 -0.602709 4.18423 0.595625 -0.845771 -0.168552 0.701935 6.17842 8.51858 -0.24065 -28.8654 -2.56917 11.0146 -45.7083 -12.8167 -11.4737 -5.44117 57.2343 -11.2992 2.12372 9.76576 -6.36528 38.6735 0.563216 -2.92439 37.4332 -11.4811 5.38263 -2.38362 30.2954 24.3564 -0.228637 9.95323 4.79738 -0.972527 -8.76029 1.44527 2.04017 15.4055 14.9892 4.14108 -4.83381 -0.0890123 -1.3539e-009 8.75217e-006 -1.45966e-008 
-207.764 103.995 17.0074 -0.965419 -1.75782 86.8563 2.81884 -8.31463 3.74291 -1.59666 18.3156 1.09065 -1.49199 -9.52455 -0.208629 0.0462048 0.00053089 0.662642 -0.962914 4.31922 0.615354 -1.45383 -0.28313 0.852411 6.39365 9.32606 -0.817196 -28.8234 -2.57183 11.0306 -46.2398 -22.9764 -10.9986 -7.24718 65.6595 -6.81845 1.35213 9.84864 -4.8981 38.7061 0.590063 -2.86564 38.0774 -10.1547 6.21797 -2.42994 30.1194 24.7458 -0.233734 9.95155 4.73568 -1.99403 -9.61921 0.590475 1.93726 17.0898 15.6766 4.34747 -5.80426 -0.0513168 -1.3539e-009 8.75217e-006 -1.45966e-008 
-207.702 103.741 16.5926 -0.635463 -1.19288 86.8817 2.89992 -8.04419 5.23977 -2.18707 18.7434 0.6123 -4.43466 -9.27138 -0.246151 0.0462048 0.00053089 0.662642 -0.641925 4.99518 0.687542 -2.31964 -0.439464 1.10883 6.16945 10.2396 -0.918533 -29.1507 -2.67672 11.2586 -45.294 -27.2751 -10.4522 -8.32037 67.9523 -3.60688 1.47098 9.84177 -3.98333 38.788 0.599321 -2.84686 38.3739 -8.73649 7.08586 -2.31128 29.8009 24.891 -0.344626 9.94203 4.75355 -2.93137 -9.83333 -0.14987 1.69021 18.2881 16.6628 4.63251 -6.55422 -0.0208297 -1.3539e-009 8.75217e-006 -1.45966e-008 
-207.493 103.647 16.1111 -0.246211 -1.12053 86.9666 2.58311 -7.77907 5.73417 -2.27094 19.2805 0.109398 -4.39977 -9.42004 -0.251415 0.0462048 0.00053089 0.662642 0.200295 5.6111 0.863151 -2.96905 -0.581347 1.40703 5.30225 11.3773 -1.19943 -29.637 -2.82178 11.5606 -44.318 -29.019 -9.72547 -8.72329 67.628 -1.44119 2.24978 9.78149 -3.74265 38.6919 0.61085 -2.81938 38.4452 -7.9776 7.59339 -2.14775 29.8614 24.3736 -0.393349 9.93678 4.88121 -3.45818 -9.57074 -0.614515 1.65696 18.9032 17.2321 4.97087 -7.16499 0.00628241 -1.3539e-009 8.75217e-006 -1.45966e-008 
-207.017 103.712 15.6196 -0.319417 -1.19206 87.2427 1.89471 -7.22672 4.0072 -2.15573 18.4754 1.5957 -3.22536 -9.28263 -0.228899 0.0462048 0.00053089 0.662642 0.714862 5.22612 1.12897 -2.97415 -0.37809 1.66542 4.55613 12.8893 -1.97723 -29.5984 -2.84889 11.644 -44.145 -30.0158 -8.29328 -7.58232 66.551 -1.62843 2.52762 9.76481 -3.35513 38.3398 0.650759 -2.72282 38.4816 -8.1149 7.19499 -2.28582 30.5336 23.9832 -0.413452 9.93567 4.77756 -3.82925 -9.17707 -0.854787 1.81081 18.6135 17.1644 5.01823 -7.58629 0.0272194 -1.3539e-009 8.75217e-006 -1.45966e-008 
-206.354 103.866 15.108 -0.709897 -1.21866 87.5399 1.37742 -6.50489 2.14616 -2.28451 17.0036 3.24794 -3.13846 -8.95783 -0.216286 0.0462048 0.00053089 0.662642 1.02738 4.36315 1.3395 -2.65247 -0.0132442 1.82643 4.47579 14.3269 -2.38654 -29.3118 -2.82448 11.6382 -43.7329 -29.9244 -6.29988 -6.36049 65.1127 -3.27081 2.28796 9.78473 -3.18576 38.1554 0.658362 -2.70149 38.1971 -8.24438 5.8649 -2.40795 30.3325 24.4527 -0.34539 9.94054 4.51325 -4.14233 -8.60326 -0.860098 1.87968 17.4933 16.8521 4.95106 -7.85324 0.0405624 -1.3539e-009 8.75217e-006 -1.45966e-008 
-205.692 103.854 14.5431 -1.01379 -1.17653 87.7657 1.07615 -6.34162 2.36134 -2.50294 16.9801 2.90357 -2.45793 -9.78224 -0.230129 0.0462048 0.00053089 0.662642 1.17924 4.17919 1.31371 -2.52067 0.0135307 1.76998 4.54444 14.6537 -1.56037 -29.3502 -2.93477 11.937 -42.8265 -28.9023 -4.68483 -6.22231 63.6567 -4.81723 2.12473 9.79116 -3.76261 38.146 0.604833 -2.82118 37.8847 -8.43038 4.29003 -1.9114 29.0711 24.7914 0.00521852 9.97169 4.63454 -4.57614 -8.33377 -0.98409 1.88914 17.1813 16.7925 4.96111 -8.40855 0.0682986 -1.3539e-009 8.75217e-006 -1.45966e-008 
-205.093 103.481 14.0189 -1.20717 -0.802539 87.6454 0.640637 -7.69224 6.80329 -1.7394 20.2378 -1.35614 -1.50511 -11.6782 -0.252162 0.0462048 0.00053089 0.662642 0.529917 4.64467 1.17145 -2.62817 -0.188133 1.59429 4.43958 13.4371 -0.349733 -29.5163 -3.11622 12.4033 -42.5121 -27.4005 -3.77682 -5.91796 61.6432 -6.59742 2.07066 9.78827 -4.53417 38.0802 0.589899 -2.85321 37.9894 -8.6776 3.0708 -1.20093 28.1207 24.0222 0.471798 10.0166 5.00412 -5.33384 -8.85197 -1.11853 1.83279 18.6572 17.0725 4.77059 -9.69144 0.128729 -1.3539e-009 8.75217e-006 -1.45966e-008 
-204.526 102.898 13.6313 -1.48882 -0.118438 86.8551 0.520025 -11.0954 11.3376 -0.644523 26.9243 -4.85461 -2.53572 -12.5618 -0.315271 0.0462048 0.00053089 0.662642 -0.765958 5.14916 1.18437 -2.86679 -0.458211 1.58978 4.50681 11.6605 0.0864756 -29.6668 -3.16558 12.5041 -43.0833 -25.5953 -3.59414 -5.40252 59.1658 -8.14243 2.12516 9.7766 -5.25241 38.3066 0.629445 -2.76975 38.1025 -9.17827 2.00959 -0.922234 28.7311 22.7111 0.714016 10.0331 4.66646 -6.1965 -9.7651 -0.919588 1.55286 20.6925 17.6885 4.54811 -11.446 0.206547 -1.3539e-009 8.75217e-006 -1.45966e-008 
-203.887 102.396 13.3107 -1.83564 0.407711 85.936 1.12142 -15.5656 13.0334 -0.560203 34.3362 -3.93843 -3.86618 -11.9301 -0.346563 0.0462048 0.00053089 0.662642 -1.82845 5.63123 1.10546 -3.14854 -0.829439 1.51752 4.73546 10.459 0.477991 -30.0199 -3.1548 12.3909 -44.0926 -23.8405 -4.57498 -5.37006 57.4204 -8.86591 2.37479 9.74533 -5.9521 39.0061 0.615699 -2.81532 37.8191 -10.5376 0.657917 -0.843324 30.5954 21.2952 0.757954 10.0198 3.53386 -6.84744 -10.5065 -0.672621 1.32927 22.3 18.4026 4.46357 -13.0637 0.278161 -1.3539e-009 8.75217e-006 -1.45966e-008 
